<mxfile host="Electron" modified="2024-02-12T23:44:17.876Z" agent="Mozilla/5.0 (Windows NT 10.0; Win64; x64) AppleWebKit/537.36 (KHTML, like Gecko) draw.io/22.1.16 Chrome/120.0.6099.109 Electron/28.1.0 Safari/537.36" etag="ltN0pHEIrB-LwYaPZEpY" version="22.1.16" type="device">
  <diagram name="Page-1" id="e-qlTSm_JzKPl37StMg4">
    <mxGraphModel dx="1084" dy="1184" grid="1" gridSize="10" guides="1" tooltips="1" connect="1" arrows="1" fold="1" page="1" pageScale="1" pageWidth="850" pageHeight="1100" math="0" shadow="0">
      <root>
        <mxCell id="0" />
        <mxCell id="1" parent="0" />
        <mxCell id="BXRRf0xmkd7hxq-maEUf-2" value="Account A" style="points=[[0,0],[0.25,0],[0.5,0],[0.75,0],[1,0],[1,0.25],[1,0.5],[1,0.75],[1,1],[0.75,1],[0.5,1],[0.25,1],[0,1],[0,0.75],[0,0.5],[0,0.25]];outlineConnect=0;gradientColor=none;html=1;whiteSpace=wrap;fontSize=12;fontStyle=0;container=1;pointerEvents=0;collapsible=0;recursiveResize=0;shape=mxgraph.aws4.group;grIcon=mxgraph.aws4.group_aws_cloud_alt;strokeColor=#232F3E;fillColor=none;verticalAlign=top;align=left;spacingLeft=30;fontColor=#232F3E;dashed=0;" vertex="1" parent="1">
          <mxGeometry x="130" y="270" width="140" height="180" as="geometry" />
        </mxCell>
        <mxCell id="BXRRf0xmkd7hxq-maEUf-5" value="Source AMI" style="rounded=0;whiteSpace=wrap;html=1;dashed=1;fillColor=none;verticalAlign=top;strokeColor=#ED7100;strokeWidth=2;" vertex="1" parent="BXRRf0xmkd7hxq-maEUf-2">
          <mxGeometry x="20" y="38" width="100" height="122" as="geometry" />
        </mxCell>
        <mxCell id="BXRRf0xmkd7hxq-maEUf-4" value="" style="sketch=0;outlineConnect=0;fontColor=#232F3E;gradientColor=none;fillColor=#ED7100;strokeColor=none;dashed=0;verticalLabelPosition=bottom;verticalAlign=top;align=center;html=1;fontSize=12;fontStyle=0;aspect=fixed;pointerEvents=1;shape=mxgraph.aws4.ami;" vertex="1" parent="BXRRf0xmkd7hxq-maEUf-2">
          <mxGeometry x="46" y="80" width="48" height="48" as="geometry" />
        </mxCell>
        <mxCell id="BXRRf0xmkd7hxq-maEUf-6" value="Account B" style="points=[[0,0],[0.25,0],[0.5,0],[0.75,0],[1,0],[1,0.25],[1,0.5],[1,0.75],[1,1],[0.75,1],[0.5,1],[0.25,1],[0,1],[0,0.75],[0,0.5],[0,0.25]];outlineConnect=0;gradientColor=none;html=1;whiteSpace=wrap;fontSize=12;fontStyle=0;container=1;pointerEvents=0;collapsible=0;recursiveResize=0;shape=mxgraph.aws4.group;grIcon=mxgraph.aws4.group_aws_cloud_alt;strokeColor=#232F3E;fillColor=none;verticalAlign=top;align=left;spacingLeft=30;fontColor=#232F3E;dashed=0;" vertex="1" parent="1">
          <mxGeometry x="400" y="270" width="140" height="180" as="geometry" />
        </mxCell>
        <mxCell id="BXRRf0xmkd7hxq-maEUf-9" value="EC2 Instance&lt;br&gt;(AMI: Source AMI)" style="sketch=0;outlineConnect=0;fontColor=#232F3E;gradientColor=none;fillColor=#ED7100;strokeColor=none;dashed=0;verticalLabelPosition=bottom;verticalAlign=top;align=center;html=1;fontSize=12;fontStyle=0;aspect=fixed;pointerEvents=1;shape=mxgraph.aws4.instance2;" vertex="1" parent="BXRRf0xmkd7hxq-maEUf-6">
          <mxGeometry x="46" y="80" width="48" height="48" as="geometry" />
        </mxCell>
        <mxCell id="BXRRf0xmkd7hxq-maEUf-10" value="&amp;nbsp;Share with Account B&amp;nbsp;" style="edgeStyle=orthogonalEdgeStyle;rounded=0;orthogonalLoop=1;jettySize=auto;html=1;" edge="1" parent="1" source="BXRRf0xmkd7hxq-maEUf-4" target="BXRRf0xmkd7hxq-maEUf-9">
          <mxGeometry relative="1" as="geometry" />
        </mxCell>
      </root>
    </mxGraphModel>
  </diagram>
</mxfile>
